<?xml version="1.0" encoding="utf-8"?>
<!-- Generator: Adobe Illustrator 19.0.0, SVG Export Plug-In . SVG Version: 6.00 Build 0)  -->
<svg version="1.1" id="Layer_1" xmlns="http://www.w3.org/2000/svg" xmlns:xlink="http://www.w3.org/1999/xlink" x="0px" y="0px"
	 viewBox="-281 404.9 32 32" style="enable-background:new -281 404.9 32 32;" xml:space="preserve">
<style type="text/css">
	.st0{fill:#373A3C;}
</style>
<path class="st0" d="M-265,407.8l13.4,26.7h-26.8L-265,407.8L-265,407.8z M-265,404.9c-0.7,0-1.4,0.5-1.9,1.4l-13.7,27.2
	c-1,1.9-0.2,3.4,2,3.4h27.2c2.1,0,3-1.5,2-3.4l0,0l-13.7-27.2C-263.6,405.4-264.3,404.9-265,404.9L-265,404.9L-265,404.9z"/>
<path class="st0" d="M-263,430.9c0,1.1-0.9,2-2,2s-2-0.9-2-2c0-1.1,0.9-2,2-2S-263,429.8-263,430.9z"/>
<path class="st0" d="M-265,426.9c-1.1,0-2-0.9-2-2v-6c0-1.1,0.9-2,2-2s2,0.9,2,2v6C-263,426-263.9,426.9-265,426.9z"/>
</svg>
